<svg width="159" height="42" viewBox="0 0 159 42" fill="none" xmlns="http://www.w3.org/2000/svg">
<path fill-rule="evenodd" clip-rule="evenodd" d="M73.3548 18.0293C72.9444 15.9229 71.6586 13.999 69.6543 12.8417C65.9793 10.72 61.2802 11.9791 59.1585 15.6541C57.0368 19.329 58.2959 24.0281 61.9708 26.1498C63.4621 27.0108 65.122 27.3151 66.7099 27.1271C62.3589 29.7272 56.7662 29.9559 52.065 27.2417C45.1561 23.2529 42.7889 14.4185 46.7778 7.50962C50.7666 0.600771 59.601 -1.76638 66.5098 2.22242C72.1605 5.48492 74.7731 11.9887 73.3548 18.0293Z" fill="#093E9C"/>
<path d="M65.4641 23.9282C67.3773 25.0328 69.8236 24.3773 70.9282 22.4641C72.0328 20.5509 71.3773 18.1046 69.4641 17C67.5509 15.8954 65.1046 16.5509 64 18.4641C62.8954 20.3773 63.5509 22.8236 65.4641 23.9282Z" fill="#07317C"/>
<path d="M157.5 40.5H1.5" stroke="#FFFFF0" stroke-width="3" stroke-linecap="round" stroke-linejoin="round"/>
<path d="M8.92008 26.224C7.36275 26.224 5.95475 25.9573 4.69608 25.424C3.45875 24.8907 2.47741 24.1227 1.75208 23.12C1.02675 22.1173 0.65341 20.9333 0.63208 19.568H5.43208C5.49608 20.4853 5.81608 21.2107 6.39208 21.744C6.98941 22.2773 7.80008 22.544 8.82408 22.544C9.86938 22.544 10.6908 22.2987 11.2881 21.808C11.8854 21.296 12.1841 20.6347 12.1841 19.824C12.1841 19.1627 11.9814 18.6187 11.5761 18.192C11.1708 17.7653 10.6588 17.4347 10.0401 17.2C9.44278 16.944 8.61075 16.6667 7.54408 16.368C6.09341 15.9413 4.90941 15.5253 3.99208 15.12C3.09608 14.6933 2.31741 14.064 1.65608 13.232C1.01608 12.3787 0.69608 11.248 0.69608 9.83999C0.69608 8.51729 1.02675 7.36529 1.68808 6.38399C2.34941 5.40269 3.27741 4.65599 4.47208 4.14399C5.66675 3.61069 7.03208 3.34399 8.56808 3.34399C10.8721 3.34399 12.7388 3.90929 14.1681 5.03999C15.6188 6.14929 16.4188 7.70669 16.5681 9.71199H11.6401C11.5974 8.94399 11.2668 8.31469 10.6481 7.82399C10.0508 7.31199 9.25078 7.05599 8.24808 7.05599C7.37341 7.05599 6.66941 7.27999 6.13608 7.72799C5.62408 8.17599 5.36808 8.82669 5.36808 9.67999C5.36808 10.2773 5.56008 10.7787 5.94408 11.184C6.34941 11.568 6.84008 11.888 7.41608 12.144C8.01341 12.3787 8.84541 12.656 9.91208 12.976C11.3628 13.4027 12.5468 13.8293 13.4641 14.256C14.3814 14.6827 15.1708 15.3227 15.8321 16.176C16.4934 17.0293 16.8241 18.1493 16.8241 19.536C16.8241 20.7307 16.5148 21.84 15.8961 22.864C15.2774 23.888 14.3708 24.7093 13.1761 25.328C11.9814 25.9253 10.5628 26.224 8.92008 26.224ZM38.4681 3.66399V7.27999H32.5161V26H28.0361V7.27999H22.0841V3.66399H38.4681Z" fill="#02122E"/>
<path d="M80.1201 14.8C80.1201 12.6027 80.6108 10.64 81.5921 8.91204C82.5948 7.16274 83.9494 5.80804 85.6561 4.84804C87.3841 3.86674 89.3148 3.37604 91.4481 3.37604C93.9441 3.37604 96.1308 4.01604 98.0081 5.29604C99.8851 6.57604 101.197 8.34674 101.944 10.608H96.7921C96.2801 9.54134 95.5548 8.74134 94.6161 8.20804C93.6988 7.67474 92.6321 7.40804 91.4161 7.40804C90.1148 7.40804 88.9521 7.71734 87.9281 8.33604C86.9254 8.93334 86.1361 9.78674 85.5601 10.896C85.0054 12.0053 84.7281 13.3067 84.7281 14.8C84.7281 16.272 85.0054 17.5733 85.5601 18.704C86.1361 19.8133 86.9254 20.6773 87.9281 21.296C88.9521 21.8933 90.1148 22.192 91.4161 22.192C92.6321 22.192 93.6988 21.9253 94.6161 21.392C95.5548 20.8373 96.2801 20.0267 96.7921 18.96H101.944C101.197 21.2427 99.8851 23.024 98.0081 24.304C96.1521 25.5627 93.9654 26.192 91.4481 26.192C89.3148 26.192 87.3841 25.712 85.6561 24.752C83.9494 23.7707 82.5948 22.416 81.5921 20.688C80.6108 18.96 80.1201 16.9973 80.1201 14.8ZM120.939 26L112.81 16.048V26H108.33V3.66404H112.81V13.68L120.939 3.66404H126.347L117.13 14.736L126.603 26H120.939ZM145.805 21.744H136.909L135.437 26H130.733L138.765 3.63204H143.981L152.013 26H147.277L145.805 21.744ZM144.589 18.16L141.357 8.81604L138.125 18.16H144.589Z" fill="#02122E"/>
</svg>
